<svg width="16" height="20" viewBox="0 0 16 20" fill="none" xmlns="http://www.w3.org/2000/svg">
<path d="M14.807 5.723H11.842V4.531C11.842 4.0673 11.7507 3.60815 11.5732 3.17974C11.3958 2.75134 11.1357 2.36209 10.8078 2.03421C10.4799 1.70632 10.0907 1.44623 9.66226 1.26878C9.23386 1.09133 8.7747 1 8.311 1C7.8473 1 7.38815 1.09133 6.95975 1.26878C6.53135 1.44623 6.14209 1.70632 5.81421 2.03421C5.48632 2.36209 5.22623 2.75134 5.04878 3.17974C4.87133 3.60815 4.78 4.0673 4.78 4.531V5.723H1.815L1 19H15.621L14.807 5.723ZM5.834 8.5V6.777H10.786V8.5H11.841V6.777H13.814L14.499 17.945H2.121L2.806 6.777H4.779V8.5H5.834ZM5.834 4.531C5.834 3.87432 6.09486 3.24454 6.5592 2.7802C7.02354 2.31586 7.65332 2.055 8.31 2.055C8.96668 2.055 9.59646 2.31586 10.0608 2.7802C10.5251 3.24454 10.786 3.87432 10.786 4.531V5.723H5.834V4.531Z" fill="white" stroke="white" stroke-width="0.5"/>
</svg>
