<svg width="23" height="24" viewBox="0 0 23 24" fill="none" xmlns="http://www.w3.org/2000/svg">
<path d="M22.2983 5.29553L11.4013 0.0349453C11.3047 -0.0116484 11.1922 -0.0116484 11.0957 0.0349453L0.198703 5.29553C0.0772031 5.35417 0 5.47722 0 5.61213V18.3878C0 18.5228 0.0772031 18.6458 0.198703 18.7044L11.0956 23.965C11.1439 23.9883 11.1962 24 11.2485 24C11.3008 24 11.353 23.9883 11.4013 23.965L22.2983 18.7044C22.4198 18.6458 22.497 18.5228 22.497 18.3878V5.61217C22.497 5.47717 22.4197 5.35422 22.2983 5.29553ZM11.2485 0.74196L21.3368 5.61213L18.4124 7.02391C18.3939 7.0098 18.3743 6.99677 18.3529 6.98641L8.3331 2.14938L11.2485 0.74196ZM7.53913 2.54688L17.6127 7.40997L15.5495 8.40602L5.4801 3.5449L7.53913 2.54688ZM17.8484 8.07691V11.7587L15.9213 12.6891V9.00728L17.8484 8.07691ZM21.7939 18.1673L11.6001 23.0883V11.0934L14.0316 9.91951C14.2064 9.83509 14.2798 9.62495 14.1953 9.45006C14.1109 9.27526 13.9008 9.20186 13.7259 9.28633L11.2485 10.4823L10.2737 10.0117C10.0988 9.9272 9.88865 10.0006 9.80422 10.1755C9.7198 10.3503 9.79312 10.5605 9.96796 10.6449L10.8969 11.0934V23.0883L0.703124 18.1672V6.17224L8.46562 9.91965C8.51488 9.94347 8.56696 9.95472 8.61819 9.95472C8.74888 9.95472 8.87441 9.8815 8.93502 9.75592C9.01944 9.58108 8.94613 9.37089 8.77129 9.28647L1.1602 5.61213L4.65262 3.92613L15.2133 9.02439C15.2148 9.02655 15.2165 9.02847 15.2181 9.03058V13.2493C15.2181 13.3703 15.2803 13.4827 15.3828 13.5471C15.4397 13.5828 15.5046 13.6008 15.5698 13.6008C15.6219 13.6008 15.6741 13.5893 15.7226 13.5659L18.3529 12.2961C18.4744 12.2374 18.5516 12.1144 18.5516 11.9795V7.73753L21.7939 6.17228V18.1673Z" fill="black"/>
<path d="M3.60462 16.8037L2.00548 16.0317C1.83054 15.9472 1.62045 16.0206 1.53603 16.1954C1.45161 16.3703 1.52492 16.5804 1.69976 16.6649L3.2989 17.4368C3.34817 17.4607 3.40024 17.4719 3.45148 17.4719C3.58217 17.4719 3.7077 17.3987 3.76831 17.2731C3.85277 17.0982 3.77946 16.8881 3.60462 16.8037Z" fill="black"/>
<path d="M5.07607 15.8456L2.0074 14.3642C1.83251 14.2797 1.62237 14.353 1.53795 14.5279C1.45358 14.7028 1.52689 14.913 1.70173 14.9974L4.7704 16.4788C4.81967 16.5026 4.87174 16.5139 4.92298 16.5139C5.05367 16.5139 5.1792 16.4407 5.23981 16.3151C5.32423 16.1402 5.25092 15.93 5.07607 15.8456Z" fill="black"/>
</svg>
