<svg width="16" height="16" viewBox="0 0 16 16" fill="none" xmlns="http://www.w3.org/2000/svg">
<g clip-path="url(#clip0_1_836)">
<path d="M13.2234 10.085V5.06374C13.2232 4.84361 13.1651 4.6274 13.0549 4.43681C12.9447 4.24623 12.7864 4.08796 12.5957 3.97789L8.20213 1.46725C8.0113 1.35708 7.79483 1.29907 7.57447 1.29907C7.35412 1.29907 7.13765 1.35708 6.94681 1.46725L2.5532 3.97789C2.36255 4.08796 2.20421 4.24623 2.09404 4.43681C1.98387 4.6274 1.92576 4.84361 1.92554 5.06374V10.085C1.92576 10.3052 1.98387 10.5214 2.09404 10.7119C2.20421 10.9025 2.36255 11.0608 2.5532 11.1709L6.94681 13.6815C7.13765 13.7917 7.35412 13.8497 7.57447 13.8497C7.79483 13.8497 8.0113 13.7917 8.20213 13.6815L12.5957 11.1709C12.7864 11.0608 12.9447 10.9025 13.0549 10.7119C13.1651 10.5214 13.2232 10.3052 13.2234 10.085Z" stroke="white" stroke-width="2" stroke-linecap="round" stroke-linejoin="round"/>
<path d="M2.09521 4.41101L7.57468 7.58069L13.0541 4.41101" stroke="white" stroke-width="2" stroke-linecap="round" stroke-linejoin="round"/>
<path d="M7.57446 13.9011V7.57434" stroke="white" stroke-width="2" stroke-linecap="round" stroke-linejoin="round"/>
</g>
<defs>
<clipPath id="clip0_1_836">
<rect width="15.0638" height="15.0638" fill="white" transform="translate(0.0424805 0.0424805)"/>
</clipPath>
</defs>
</svg>
