<svg width="24" height="17" viewBox="0 0 24 17" fill="none" xmlns="http://www.w3.org/2000/svg">
<path d="M22.8 0H1.2C0.53725 0 0 0.53725 0 1.2V15.6C0 16.2627 0.53725 16.8 1.2 16.8H22.8C23.4627 16.8 24 16.2627 24 15.6V1.2C24 0.53725 23.4627 0 22.8 0ZM23.2 15.6C23.2 15.8209 23.0209 16 22.8 16H1.2C0.9791 16 0.8 15.8209 0.8 15.6V5.6H23.2V15.6ZM23.2 4.8H0.8V3.2H23.2V4.8ZM23.2 2.4H0.8V1.2C0.8 0.9791 0.9791 0.8 1.2 0.8H22.8C23.0209 0.8 23.2 0.9791 23.2 1.2V2.4Z" fill="#222222"/>
<path d="M18.6375 14.007C18.6955 13.9568 18.7498 13.9025 18.8 13.8445C19.3801 14.5087 20.3888 14.5769 21.0531 13.9967C21.7173 13.4166 21.7855 12.4079 21.2053 11.7436C20.9015 11.3958 20.4619 11.1965 20 11.1973C19.5387 11.1988 19.1009 11.4005 18.8 11.7501C18.2216 11.082 17.2112 11.0092 16.5431 11.5876C15.875 12.1659 15.8022 13.1764 16.3806 13.8445C16.9589 14.5126 17.9694 14.5853 18.6375 14.007ZM20 11.9973C20.4418 11.9973 20.8 12.3554 20.8 12.7973C20.8 13.2391 20.4418 13.5973 20 13.5973C19.5581 13.5973 19.2 13.2391 19.2 12.7973C19.2 12.3554 19.5581 11.9973 20 11.9973ZM17.6 11.9973C18.0418 11.9973 18.4 12.3554 18.4 12.7973C18.4 13.2391 18.0418 13.5973 17.6 13.5973C17.1581 13.5973 16.8 13.2391 16.8 12.7973C16.8 12.3554 17.1581 11.9973 17.6 11.9973Z" fill="#222222"/>
<path d="M3.20078 12.4016H8.00078C8.22168 12.4016 8.40078 12.2225 8.40078 12.0016C8.40078 11.7807 8.22168 11.6016 8.00078 11.6016H3.20078C2.97988 11.6016 2.80078 11.7807 2.80078 12.0016C2.80078 12.2225 2.97988 12.4016 3.20078 12.4016Z" fill="#222222"/>
<path d="M3.20078 14.0012H8.00078C8.22168 14.0012 8.40078 13.8221 8.40078 13.6012C8.40078 13.3803 8.22168 13.2012 8.00078 13.2012H3.20078C2.97988 13.2012 2.80078 13.3803 2.80078 13.6012C2.80078 13.8221 2.97988 14.0012 3.20078 14.0012Z" fill="#222222"/>
</svg>
