<svg width="21" height="20" viewBox="0 0 21 20" fill="none" xmlns="http://www.w3.org/2000/svg">
<path d="M20.1785 1.75972L7.66717 1.75972C7.3232 0.738103 6.35689 0 5.22077 0C4.08465 0 3.11834 0.738103 2.77437 1.75972L0.821453 1.75972C0.367792 1.75972 0 2.12751 0 2.58117C0 3.03483 0.367792 3.40262 0.821453 3.40262L2.77443 3.40262C3.1184 4.42423 4.0847 5.16234 5.22082 5.16234C6.35695 5.16234 7.32325 4.42423 7.66722 3.40262L20.1785 3.40262C20.6322 3.40262 21 3.03483 21 2.58117C21 2.12751 20.6322 1.75972 20.1785 1.75972ZM5.22077 3.51943C4.70342 3.51943 4.28251 3.09852 4.28251 2.58117C4.28251 2.06382 4.70342 1.64291 5.22077 1.64291C5.73812 1.64291 6.15903 2.06382 6.15903 2.58117C6.15903 3.09852 5.73812 3.51943 5.22077 3.51943Z" fill="black"/>
<path d="M20.1785 8.79878H18.2255C17.8815 7.77716 16.9152 7.03906 15.7791 7.03906C14.6431 7.03906 13.6767 7.77716 13.3328 8.79878L0.821453 8.79878C0.367792 8.79878 0 9.16657 0 9.62023C0 10.0739 0.367792 10.4417 0.821453 10.4417L13.3328 10.4417C13.6767 11.4633 14.6431 12.2014 15.7792 12.2014C16.9152 12.2014 17.8816 11.4633 18.2256 10.4417H20.1785C20.6322 10.4417 21 10.0739 21 9.62023C21 9.16657 20.6322 8.79878 20.1785 8.79878ZM15.7792 10.5585C15.2618 10.5585 14.8409 10.1376 14.8409 9.62023C14.8409 9.10288 15.2618 8.68197 15.7792 8.68197C16.2965 8.68197 16.7174 9.10288 16.7174 9.62023C16.7174 10.1376 16.2965 10.5585 15.7792 10.5585Z" fill="black"/>
<path d="M20.1785 15.8377L11.1867 15.8377C10.8427 14.8161 9.87638 14.078 8.74026 14.078C7.60413 14.078 6.63783 14.8161 6.29386 15.8377L0.821453 15.8377C0.367792 15.8377 0 16.2055 0 16.6592C0 17.1128 0.367792 17.4806 0.821453 17.4806H6.29386C6.63783 18.5022 7.60413 19.2403 8.74026 19.2403C9.87638 19.2403 10.8427 18.5022 11.1867 17.4806L20.1785 17.4806C20.6322 17.4806 21 17.1128 21 16.6592C21 16.2055 20.6322 15.8377 20.1785 15.8377ZM8.74026 17.5975C8.22291 17.5975 7.80199 17.1766 7.80199 16.6592C7.80199 16.1419 8.22291 15.721 8.74026 15.721C9.25761 15.721 9.67852 16.1418 9.67852 16.6592C9.67852 17.1765 9.25761 17.5975 8.74026 17.5975Z" fill="black"/>
</svg>
