<svg width="18" height="18" viewBox="0 0 18 18" fill="none" xmlns="http://www.w3.org/2000/svg">
<path d="M17.8526 7.36956L17.7735 6.93717H8.47266V11.1559H13.2698C12.4676 12.7518 10.8323 13.7812 9 13.7812C6.3636 13.7812 4.21875 11.6364 4.21875 9C4.21875 6.3636 6.3636 4.21875 9 4.21875C10.2771 4.21875 11.4778 4.71607 12.3809 5.61913L12.7537 5.992L15.7369 3.00892L15.364 2.63605C13.6641 0.936176 11.404 0 9 0C6.59602 0 4.33593 0.936176 2.63602 2.63602C0.936176 4.33593 0 6.59602 0 9C0 11.404 0.936176 13.6641 2.63602 15.364C4.33593 17.0638 6.59602 18 9 18C11.404 18 13.6641 17.0638 15.364 15.364C17.0638 13.6641 18 11.404 18 9C18 8.45244 17.9504 7.90386 17.8526 7.36956ZM9 1.05469C10.9456 1.05469 12.7844 1.74916 14.2332 3.02101L12.7372 4.51698C11.6902 3.64103 10.3817 3.16406 9 3.16406C7.15707 3.16406 5.5112 4.023 4.4409 5.36129L2.94335 3.86374C4.40191 2.14646 6.5757 1.05469 9 1.05469ZM2.30839 4.72029L3.84845 6.26034C3.41195 7.07776 3.16406 8.01042 3.16406 9C3.16406 9.98958 3.41195 10.9222 3.84841 11.7397L2.30836 13.2797C1.51509 12.0437 1.05469 10.5746 1.05469 9C1.05469 7.42539 1.51509 5.95631 2.30839 4.72029ZM2.94335 14.1363L4.4409 12.6387C5.5112 13.977 7.15707 14.8359 9 14.8359C9.96919 14.8359 10.9027 14.6018 11.7416 14.1534L13.2797 15.6916C12.0437 16.4849 10.5746 16.9453 9 16.9453C6.5757 16.9453 4.40191 15.8535 2.94335 14.1363ZM14.1363 15.0566L12.6407 13.5611C13.542 12.8419 14.2021 11.8882 14.5557 10.7902L14.7775 10.1012H9.52734V7.99186H16.8819C16.9241 8.32518 16.9453 8.66271 16.9453 9C16.9453 11.4243 15.8535 13.5981 14.1363 15.0566Z" fill="#222222"/>
</svg>
