<svg width="101" height="93" viewBox="0 0 101 93" fill="none" xmlns="http://www.w3.org/2000/svg">
<path d="M91.7446 9.87982C89.359 7.38168 86.5265 5.39999 83.409 4.04794C80.2914 2.6959 76.95 2 73.5754 2C70.2009 2 66.8594 2.6959 63.7419 4.04794C60.6244 5.39999 57.7919 7.38168 55.4062 9.87982L50.4545 15.0648L45.5029 9.87982C43.1163 7.38238 40.2832 5.40141 37.1653 4.05C34.0473 2.6986 30.7056 2.00324 27.3309 2.00362C20.5154 2.00439 13.9793 4.83901 9.16053 9.88392C4.34176 14.9288 1.63501 21.7707 1.63574 28.9045C1.63648 36.0383 4.34463 42.8797 9.16444 47.9235L14.1151 53.1054L50.4545 91.1368L86.7929 53.1003L91.7446 47.9235C94.1313 45.4264 96.0246 42.4616 97.3163 39.1985C98.608 35.9354 99.2729 32.4379 99.2729 28.9057C99.2729 25.3736 98.608 21.8761 97.3163 18.613C96.0246 15.3498 94.1313 12.3851 91.7446 9.88801V9.87982Z" stroke="#404040" stroke-width="3" stroke-linecap="round" stroke-linejoin="round"/>
</svg>
