<svg width="20" height="19" viewBox="0 0 20 19" fill="none" xmlns="http://www.w3.org/2000/svg">
<path d="M13.922 1.00206C13.1719 1.00232 12.4312 1.1687 11.7531 1.48926C11.075 1.80982 10.4763 2.2766 10 2.85606C9.33608 2.04697 8.43829 1.46289 7.42956 1.1838C6.42084 0.904707 5.3505 0.944251 4.36512 1.29702C3.37974 1.64978 2.5275 2.29852 1.92509 3.1544C1.32269 4.01028 0.999575 5.03144 1 6.07806C1 8.27106 2.307 10.8071 4.886 13.6161C6.34574 15.1828 7.93725 16.6214 9.643 17.9161L10 18.1831L10.356 17.9151C12.0621 16.6205 13.6539 15.1819 15.114 13.6151C17.692 10.8091 19 8.27306 19 6.08006C18.9984 4.73378 18.4629 3.44309 17.5109 2.49113C16.559 1.53916 15.2683 1.00365 13.922 1.00206ZM14.24 12.8161C12.932 14.2194 11.5141 15.5161 10 16.6941C8.48587 15.5161 7.06805 14.2193 5.76 12.8161C3.422 10.2691 2.186 7.94006 2.186 6.08006C2.18595 5.2176 2.47253 4.37958 3.00067 3.69775C3.52881 3.01591 4.26857 2.52892 5.10365 2.31334C5.93873 2.09775 6.82177 2.1658 7.61396 2.50679C8.40615 2.84777 9.06256 3.44236 9.48 4.19706L10 5.13406L10.519 4.19806C10.9364 3.44336 11.5928 2.84877 12.385 2.50779C13.1772 2.1668 14.0603 2.09875 14.8954 2.31433C15.7304 2.52992 16.4702 3.01691 16.9983 3.69874C17.5265 4.38058 17.813 5.2186 17.813 6.08106C17.813 7.94006 16.577 10.2691 14.24 12.8161Z" fill="black" stroke="#222222" stroke-width="0.5"/>
</svg>
