<svg width="44" height="44" viewBox="0 0 44 44" fill="none" xmlns="http://www.w3.org/2000/svg">
<g id="history">
<path id="Path 47" d="M21.999 0C17.6478 0 13.3944 1.29028 9.77649 3.70767C6.15861 6.12506 3.33881 9.56099 1.67368 13.581C0.00855577 17.6009 -0.427118 22.0244 0.421757 26.292C1.27063 30.5596 3.36593 34.4796 6.44268 37.5564C9.51944 40.6331 13.4395 42.7284 17.707 43.5773C21.9746 44.4261 26.3981 43.9905 30.4181 42.3253C34.438 40.6602 37.874 37.8404 40.2914 34.2225C42.7088 30.6047 43.999 26.3512 43.999 22C43.9924 16.1673 41.6724 10.5753 37.5481 6.45096C33.4237 2.32659 27.8318 0.00661683 21.999 0ZM21.999 40.988C18.2436 40.9878 14.5726 39.874 11.4501 37.7875C8.32771 35.7009 5.89413 32.7353 4.45712 29.2657C3.02012 25.7961 2.64424 21.9783 3.377 18.295C4.10977 14.6118 5.91828 11.2285 8.57384 8.5731C11.2294 5.91768 14.6127 4.10935 18.296 3.37678C21.9793 2.6442 25.7971 3.02028 29.2667 4.45747C32.7362 5.89466 35.7017 8.3284 37.788 11.4509C39.8744 14.5735 40.988 18.2446 40.988 22C40.9822 27.0343 38.9797 31.8608 35.4198 35.4205C31.8599 38.9802 27.0333 40.9824 21.999 40.988Z" fill="#222222"/>
<path id="Path 48" d="M33.344 21.694H22.912V10.294C22.912 9.89524 22.7536 9.51282 22.4717 9.23086C22.1897 8.9489 21.8073 8.7905 21.4085 8.7905C21.0098 8.7905 20.6274 8.9489 20.3454 9.23086C20.0634 9.51282 19.905 9.89524 19.905 10.294V23.194C19.905 23.5918 20.0631 23.9733 20.3444 24.2547C20.6257 24.536 21.0072 24.694 21.405 24.694H33.344C33.7428 24.694 34.1252 24.5356 34.4072 24.2536C34.6891 23.9717 34.8475 23.5892 34.8475 23.1905C34.8475 22.7917 34.6891 22.4093 34.4072 22.1274C34.1252 21.8454 33.7428 21.687 33.344 21.687V21.694Z" fill="#222222"/>
</g>
</svg>
