<svg width="75" height="100" viewBox="0 0 75 100" fill="none" xmlns="http://www.w3.org/2000/svg">
<path d="M57.4886 35.9143L57.4916 35.9058C58.1358 34.0561 57.5579 31.9935 56.0192 30.7606L56.0183 30.7599L40.3933 18.2599L40.3917 18.2587C38.7007 16.9096 36.3055 16.9096 34.6145 18.2587L34.613 18.2599L18.988 30.7599L18.9871 30.7606C17.4577 31.986 16.8512 34.0546 17.5114 35.9143C18.1666 37.7598 19.912 39 21.875 39H23.5V53.125C23.5 55.6784 25.5716 57.75 28.125 57.75H46.875C49.4284 57.75 51.5 55.6784 51.5 53.125V39H53.125C55.088 39 56.8334 37.7598 57.4886 35.9143ZM1.5 37.5C1.5 17.6472 17.6472 1.5 37.5 1.5C57.3528 1.5 73.5 17.6472 73.5 37.5C73.5 43.6936 71.4772 50.4754 68.3281 57.2542C65.1856 64.0186 60.9666 70.685 56.6793 76.6218C48.1221 88.4712 39.3819 97.2934 38.654 98.0247C38.3315 98.3421 37.9158 98.5 37.5 98.5C37.0842 98.5 36.6685 98.3421 36.346 98.0247C35.6181 97.2934 26.8779 88.4712 18.3207 76.6218C14.0334 70.685 9.81437 64.0186 6.6719 57.2542C3.52279 50.4754 1.5 43.6936 1.5 37.5Z" stroke="#222222" stroke-width="3"/>
</svg>
