<svg width="15" height="20" viewBox="0 0 15 20" fill="none" xmlns="http://www.w3.org/2000/svg">
<path fill-rule="evenodd" clip-rule="evenodd" d="M1.875 8.75C1.53083 8.75 1.25 9.03 1.25 9.375V18.125C1.25 18.47 1.53083 18.75 1.875 18.75H13.125C13.4692 18.75 13.75 18.47 13.75 18.125V9.375C13.75 9.03 13.4692 8.75 13.125 8.75H11.875H3.125H1.875ZM2.5 7.5V5C2.5 2.2425 4.7425 0 7.5 0C10.2575 0 12.5 2.2425 12.5 5V7.5H13.125C14.1583 7.5 15 8.34083 15 9.375V18.125C15 19.1592 14.1583 20 13.125 20H1.875C0.841667 20 0 19.1592 0 18.125V9.375C0 8.34083 0.841667 7.5 1.875 7.5H2.5ZM11.25 7.5V5C11.25 2.9325 9.5675 1.25 7.5 1.25C5.4325 1.25 3.75 2.9325 3.75 5V7.5H11.25ZM6.875 14.0451C6.2647 13.7974 5.83333 13.1983 5.83333 12.5C5.83333 11.5808 6.58083 10.8333 7.5 10.8333C8.41916 10.8333 9.16666 11.5808 9.16666 12.5C9.16666 13.1983 8.7353 13.7974 8.125 14.0451V16.0417C8.125 16.3867 7.845 16.6667 7.5 16.6667C7.155 16.6667 6.875 16.3867 6.875 16.0417V14.0451ZM7.5 12.0833C7.27083 12.0833 7.08333 12.27 7.08333 12.5C7.08333 12.73 7.27083 12.9167 7.5 12.9167C7.72916 12.9167 7.91666 12.73 7.91666 12.5C7.91666 12.27 7.72916 12.0833 7.5 12.0833Z" fill="black"/>
</svg>
