<svg width="44" height="42" viewBox="0 0 44 42" fill="none" xmlns="http://www.w3.org/2000/svg">
<g id="map">
<path id="Path 45" d="M42.962 8.27501C28.034 5.30701 29 5.462 28.662 5.523C28.554 5.541 27.229 5.807 24.141 6.423C23.4923 4.54721 22.2746 2.92049 20.6576 1.7695C19.0406 0.618503 17.1049 0.000561149 15.1201 0.0017718C13.1353 0.00298244 11.2003 0.623286 9.58471 1.77625C7.96913 2.92922 6.75343 4.55742 6.107 6.434L1.54 5.523C1.35297 5.48606 1.16009 5.49103 0.975209 5.53755C0.790333 5.58407 0.618065 5.67099 0.4708 5.79205C0.323534 5.91311 0.204932 6.06531 0.123526 6.2377C0.0421196 6.41008 -6.74048e-05 6.59837 8.08387e-08 6.78901V37.039C7.54898e-05 37.3372 0.10357 37.6262 0.292845 37.8567C0.482121 38.0872 0.745466 38.2449 1.038 38.303C15.838 41.245 14.871 41.055 14.97 41.067C15.281 41.105 14.319 41.267 28.876 38.353L42.46 41.053C42.6469 41.0899 42.8396 41.085 43.0243 41.0386C43.209 40.9922 43.3812 40.9054 43.5284 40.7846C43.6757 40.6638 43.7943 40.5118 43.8758 40.3397C43.9574 40.1675 43.9998 39.9795 44 39.789V9.53901C43.9999 9.24076 43.8964 8.95177 43.7072 8.72128C43.5179 8.4908 43.2545 8.33308 42.962 8.27501ZM15.125 2.575C16.9705 2.57712 18.7399 3.31119 20.0448 4.61617C21.3498 5.92115 22.0839 7.69048 22.086 9.53601C22.086 12.774 16.904 20.995 15.125 23.715C13.348 20.998 8.164 12.775 8.164 9.53601C8.16691 7.691 8.90133 5.92244 10.2062 4.61811C11.5111 3.31378 13.28 2.58012 15.125 2.578V2.575ZM2.578 8.359L5.604 8.95901C5.592 9.15001 5.586 9.343 5.586 9.537C5.586 11.687 6.992 15.156 9.886 20.142C11.575 23.054 13.24 25.554 13.837 26.434V38.223L2.578 35.981V8.359ZM16.414 26.437C17.014 25.556 18.676 23.056 20.365 20.145C23.258 15.158 24.665 11.689 24.665 9.54C24.665 9.34 24.658 9.146 24.646 8.951L27.587 8.363V35.982L16.414 38.217V26.437ZM41.422 38.223L30.164 35.981V8.359L41.422 10.597V38.223Z" fill="#222222"/>
<path id="Path 46" d="M15.113 13.432C15.9041 13.432 16.6775 13.1974 17.3353 12.7579C17.9931 12.3184 18.5058 11.6936 18.8085 10.9627C19.1113 10.2318 19.1905 9.42757 19.0361 8.65164C18.8818 7.87572 18.5008 7.16299 17.9414 6.60358C17.382 6.04417 16.6693 5.66321 15.8934 5.50887C15.1174 5.35453 14.3132 5.43374 13.5823 5.73649C12.8514 6.03924 12.2267 6.55193 11.7871 7.20973C11.3476 7.86752 11.113 8.64088 11.113 9.43201C11.113 10.4929 11.5344 11.5103 12.2846 12.2604C13.0347 13.0106 14.0521 13.432 15.113 13.432ZM15.113 7.99101C15.3988 7.99101 15.6782 8.07575 15.9158 8.23453C16.1534 8.39331 16.3386 8.61899 16.448 8.88303C16.5574 9.14707 16.586 9.43761 16.5302 9.71791C16.4745 9.99822 16.3369 10.2557 16.1348 10.4578C15.9327 10.6599 15.6752 10.7975 15.3949 10.8532C15.1146 10.909 14.8241 10.8804 14.56 10.771C14.296 10.6616 14.0703 10.4764 13.9115 10.2388C13.7528 10.0012 13.668 9.7218 13.668 9.43601C13.6685 9.05293 13.821 8.6857 14.0918 8.41482C14.3627 8.14394 14.7299 7.99154 15.113 7.99101Z" fill="#222222"/>
</g>
</svg>
