<svg width="44" height="28" viewBox="0 0 44 28" fill="none" xmlns="http://www.w3.org/2000/svg">
<path id="meter" d="M44 9.2V1.3C44.0008 1.12957 43.9679 0.960653 43.9032 0.802965C43.8386 0.645276 43.7434 0.501918 43.6231 0.381123C43.5029 0.260327 43.36 0.164475 43.2026 0.0990707C43.0452 0.0336663 42.8764 -1.83211e-06 42.706 0L1.294 0C0.950813 0 0.621679 0.136332 0.379007 0.379004C0.136335 0.621676 3.47791e-06 0.95081 3.47791e-06 1.294V9.2C0.000200006 9.45598 0.0763139 9.70615 0.218716 9.91886C0.361119 10.1316 0.563411 10.2973 0.800003 10.395L17.521 17.432H1.294C0.951333 17.432 0.622652 17.5679 0.380066 17.8099C0.13748 18.052 0.000797924 18.3803 3.47791e-06 18.723V26.623C-0.000391074 26.7932 0.0327881 26.9618 0.097641 27.1191C0.162494 27.2765 0.257747 27.4195 0.377945 27.5399C0.498143 27.6604 0.640926 27.756 0.798117 27.8212C0.955308 27.8864 1.12382 27.92 1.294 27.92H42.706C43.0492 27.92 43.3783 27.7837 43.621 27.541C43.8637 27.2983 44 26.9692 44 26.626V18.726C44 18.4693 43.924 18.2184 43.7817 18.0049C43.6393 17.7913 43.4369 17.6247 43.2 17.526L26.48 10.489H42.706C43.0483 10.489 43.3767 10.3534 43.6192 10.1118C43.8618 9.87017 43.9987 9.54232 44 9.2ZM2.588 25.332V20.017H5.1V22.433C5.1 22.7762 5.23634 23.1053 5.47901 23.348C5.72168 23.5907 6.05081 23.727 6.394 23.727C6.73719 23.727 7.06633 23.5907 7.309 23.348C7.55167 23.1053 7.688 22.7762 7.688 22.433V20.017H10.288V21.139C10.288 21.4822 10.4243 21.8113 10.667 22.054C10.9097 22.2967 11.2388 22.433 11.582 22.433C11.9252 22.433 12.2543 22.2967 12.497 22.054C12.7397 21.8113 12.876 21.4822 12.876 21.139V20.017H15.476V22.433C15.476 22.6029 15.5095 22.7712 15.5745 22.9282C15.6395 23.0852 15.7348 23.2278 15.855 23.348C15.9752 23.4682 16.1178 23.5635 16.2748 23.6285C16.4318 23.6935 16.6001 23.727 16.77 23.727C16.9399 23.727 17.1082 23.6935 17.2652 23.6285C17.4222 23.5635 17.5648 23.4682 17.685 23.348C17.8052 23.2278 17.9005 23.0852 17.9655 22.9282C18.0305 22.7712 18.064 22.6029 18.064 22.433V20.017H20.664V21.139C20.664 21.4822 20.8003 21.8113 21.043 22.054C21.2857 22.2967 21.6148 22.433 21.958 22.433C22.3012 22.433 22.6303 22.2967 22.873 22.054C23.1157 21.8113 23.252 21.4822 23.252 21.139V20.017H25.852V22.433C25.852 22.7762 25.9883 23.1053 26.231 23.348C26.4737 23.5907 26.8028 23.727 27.146 23.727C27.4892 23.727 27.8183 23.5907 28.061 23.348C28.3037 23.1053 28.44 22.7762 28.44 22.433V20.017H31.04V21.139C31.04 21.4822 31.1763 21.8113 31.419 22.054C31.6617 22.2967 31.9908 22.433 32.334 22.433C32.6772 22.433 33.0063 22.2967 33.249 22.054C33.4917 21.8113 33.628 21.4822 33.628 21.139V20.017H36.228V22.433C36.228 22.7762 36.3643 23.1053 36.607 23.348C36.8497 23.5907 37.1788 23.727 37.522 23.727C37.8652 23.727 38.1943 23.5907 38.437 23.348C38.6797 23.1053 38.816 22.7762 38.816 22.433V20.017H41.405V25.332H2.588ZM24.188 17.432L7.7 10.491H19.81L36.3 17.429L24.188 17.432ZM2.588 7.9V2.588H5.1V5C5.1 5.34385 5.2366 5.67362 5.47974 5.91676C5.72288 6.1599 6.05265 6.2965 6.3965 6.2965C6.74036 6.2965 7.07013 6.1599 7.31327 5.91676C7.55641 5.67362 7.693 5.34385 7.693 5V2.588H10.293V3.71C10.293 4.05319 10.4293 4.38232 10.672 4.625C10.9147 4.86767 11.2438 5.004 11.587 5.004C11.9302 5.004 12.2593 4.86767 12.502 4.625C12.7447 4.38232 12.881 4.05319 12.881 3.71V2.588H15.481V5C15.481 5.34332 15.6174 5.67258 15.8602 5.91535C16.1029 6.15812 16.4322 6.2945 16.7755 6.2945C17.1188 6.2945 17.4481 6.15812 17.6909 5.91535C17.9336 5.67258 18.07 5.34332 18.07 5V2.588H20.67V3.71C20.67 4.05319 20.8063 4.38232 21.049 4.625C21.2917 4.86767 21.6208 5.004 21.964 5.004C22.3072 5.004 22.6363 4.86767 22.879 4.625C23.1217 4.38232 23.258 4.05319 23.258 3.71V2.588H25.858V5C25.858 5.34319 25.9943 5.67232 26.237 5.915C26.4797 6.15767 26.8088 6.294 27.152 6.294C27.4952 6.294 27.8243 6.15767 28.067 5.915C28.3097 5.67232 28.446 5.34319 28.446 5V2.588H31.046V3.71C31.046 4.05319 31.1823 4.38232 31.425 4.625C31.6677 4.86767 31.9968 5.004 32.34 5.004C32.6832 5.004 33.0123 4.86767 33.255 4.625C33.4977 4.38232 33.634 4.05319 33.634 3.71V2.588H36.234V5C36.234 5.34319 36.3703 5.67232 36.613 5.915C36.8557 6.15767 37.1848 6.294 37.528 6.294C37.8712 6.294 38.2003 6.15767 38.443 5.915C38.6857 5.67232 38.822 5.34319 38.822 5V2.588H41.411V7.9H2.588Z" fill="#222222"/>
</svg>
