<svg width="24" height="18" viewBox="0 0 24 18" fill="none" xmlns="http://www.w3.org/2000/svg">
<path d="M23.953 11.0526C23.9147 10.9872 23.8559 10.9363 23.7856 10.9079L22.5371 10.3969L23.8302 9.6354C23.9937 9.5397 24.0487 9.32962 23.953 9.16613C23.9147 9.10075 23.8559 9.04986 23.7856 9.02143L22.5371 8.51037L23.8302 7.74892C23.9431 7.68096 24.0072 7.55431 23.9949 7.42307C23.985 7.29346 23.9026 7.18052 23.7822 7.13152L17.623 4.53443L13.4002 2.46697C13.3609 2.45141 13.319 2.44331 13.2768 2.44297L7.8945 0.0262058C7.79764 -0.0140107 7.68771 -0.00766521 7.59609 0.0433557L0.201748 3.52285C0.032564 3.60804 -0.0355211 3.81427 0.049671 3.98345C0.0885155 4.06062 0.1551 4.12031 0.236047 4.15054L1.512 4.67875L0.201748 5.40934C0.0368943 5.50263 -0.0211152 5.71195 0.0721802 5.8768C0.109267 5.94231 0.166805 5.99376 0.236047 6.0233L1.512 6.55152L0.208608 7.2821C0.0343218 7.35636 -0.0467114 7.55787 0.0275476 7.73212C0.0662635 7.82297 0.142238 7.89268 0.236047 7.92351L1.512 8.44828L0.208608 9.17884C0.0437543 9.27213 -0.0142552 9.48145 0.0790402 9.6463C0.116127 9.71181 0.173665 9.76326 0.242907 9.7928L6.11565 12.4874C6.13186 12.4992 6.1491 12.5095 6.1671 12.5183L10.3933 14.5857L16.0963 17.0661C16.1966 17.1087 16.3112 17.1011 16.405 17.0456L23.8302 13.4084C23.9937 13.3127 24.0487 13.1026 23.953 12.9391C23.9147 12.8737 23.8559 12.8228 23.7856 12.7944L22.5371 12.2833L23.8302 11.5219C23.9937 11.4262 24.0486 11.2161 23.953 11.0526ZM22.8835 9.38848L16.2026 12.5901L10.8701 10.2708V9.12866L16.0928 11.4033C16.1352 11.4213 16.1807 11.4307 16.2266 11.4308C16.2882 11.4308 16.3486 11.4142 16.4015 11.3828L21.7928 8.94258L22.8835 9.38848ZM22.8973 7.49857L16.2026 10.7002L11.2439 8.53871L17.5373 5.23419L22.8973 7.49857ZM5.94759 11.678L1.14499 9.43613L2.30089 8.78786L5.95102 10.5392L5.94759 11.678ZM5.94759 9.79147L1.14499 7.54969L2.30089 6.89456L5.95102 8.64586L5.94759 9.79147ZM5.94759 7.90501L1.14499 5.66663L2.30089 5.01836L5.95102 6.76971L5.94759 7.90501ZM1.14499 3.78014L7.78817 0.722534L12.5153 2.88205L6.26314 6.15574L1.14499 3.78014ZM10.335 8.32605C10.2405 8.38994 10.1839 8.49665 10.1841 8.61074V13.7557L6.63701 11.9764V6.73198L13.2905 3.19417L16.7827 4.91863L10.335 8.32605ZM22.8835 13.1615L16.2026 16.3596L10.8701 14.0404V12.9016L16.0928 15.1592C16.1932 15.2017 16.3078 15.1941 16.4015 15.1386L21.7928 12.6984L22.8835 13.1615ZM16.2026 14.4732L10.8701 12.1539V11.0152L16.0963 13.2898C16.1966 13.3324 16.3112 13.3248 16.405 13.2692L21.7962 10.8291L22.8835 11.275L16.2026 14.4732Z" fill="#222222"/>
</svg>
