<svg width="20" height="20" viewBox="0 0 20 20" fill="none" xmlns="http://www.w3.org/2000/svg">
<path fill-rule="evenodd" clip-rule="evenodd" d="M18.2208 5.54324L19.2192 4.54491C19.7233 4.04157 20 3.37324 20 2.66157C20 1.9499 19.7233 1.28157 19.22 0.779065C18.1817 -0.259272 16.4933 -0.260105 15.4542 0.779065L14.4554 1.77782L14.3208 1.64323C14.0858 1.40906 13.6708 1.40906 13.4366 1.64323L12.7262 2.35362L12.5916 2.21907C11.7125 1.3399 10.2808 1.3399 9.40164 2.21907L5.36663 6.25408C5.12246 6.49825 5.12246 6.89408 5.36663 7.13825C5.48829 7.26075 5.64829 7.32158 5.80829 7.32158C5.96829 7.32158 6.1283 7.25991 6.24996 7.13825L10.285 3.10324C10.6775 2.71157 11.315 2.71157 11.7075 3.10324L11.842 3.23776L2.02745 13.0516C1.95578 13.1233 1.90245 13.2108 1.87245 13.3066L0.0282778 19.1858C-0.040889 19.4083 0.0191111 19.6508 0.183278 19.8149C0.301612 19.9341 0.461612 19.9983 0.624946 19.9983C0.687446 19.9983 0.749946 19.9891 0.811613 19.9699L6.6908 18.1266C6.71425 18.1191 6.73711 18.1103 6.75932 18.1003C6.82698 18.0699 6.89051 18.027 6.94663 17.9716C6.95312 17.9651 6.95944 17.9585 6.96558 17.9518L18.3558 6.56241C18.6 6.31824 18.6 5.92241 18.3558 5.67824L18.2208 5.54324ZM17.03 6.11991L6.50414 16.645L3.35288 13.4937L13.8792 2.96824L13.9948 3.08395C14.0008 3.0905 14.007 3.09693 14.0133 3.10324L15.4572 4.54666L17.03 6.11991ZM5.33261 17.2418L2.75631 14.6655L1.57912 18.4191L5.33261 17.2418ZM17.3371 4.65949L18.335 3.66074C18.6017 3.39324 18.7492 3.03907 18.7492 2.66157C18.7492 2.28407 18.6017 1.92907 18.335 1.6624C17.7858 1.1124 16.8883 1.1099 16.3375 1.6624L15.3387 2.66115L17.3371 4.65949Z" fill="black"/>
</svg>
