<svg width="22" height="22" viewBox="0 0 22 22" fill="none" xmlns="http://www.w3.org/2000/svg">
<path d="M21 20.1186L15.6874 14.806C17.0978 13.1676 17.8183 11.0461 17.6973 8.88758C17.5763 6.72903 16.6233 4.7014 15.0386 3.2308C13.4539 1.76019 11.3608 0.961107 9.19924 1.00146C7.03768 1.04181 4.9759 1.91845 3.44718 3.44718C1.91845 4.9759 1.04181 7.03768 1.00146 9.19924C0.961107 11.3608 1.76019 13.4539 3.2308 15.0386C4.7014 16.6233 6.72903 17.5763 8.88758 17.6973C11.0461 17.8183 13.1676 17.0978 14.806 15.6874L20.1186 21L21 20.1186ZM2.26717 9.36469C2.26717 7.96071 2.6835 6.58827 3.46351 5.4209C4.24351 4.25354 5.35217 3.34369 6.64927 2.80641C7.94638 2.26913 9.37367 2.12856 10.7507 2.40246C12.1277 2.67636 13.3925 3.35244 14.3853 4.3452C15.378 5.33796 16.0541 6.60282 16.328 7.97982C16.6019 9.35681 16.4614 10.7841 15.9241 12.0812C15.3868 13.3783 14.4769 14.487 13.3096 15.267C12.1422 16.047 10.7698 16.4633 9.3658 16.4633C7.48358 16.4618 5.67887 15.7135 4.34793 14.3826C3.017 13.0516 2.26864 11.2469 2.26717 9.36469Z" fill="#222222" stroke="#222222" stroke-width="0.5"/>
</svg>
