<svg width="20" height="20" viewBox="0 0 20 20" fill="none" xmlns="http://www.w3.org/2000/svg">
<path d="M19.0176 18.2236L14.2316 13.4376C15.5022 11.9615 16.1512 10.0503 16.0422 8.10575C15.9332 6.16115 15.0747 4.33451 13.647 3.00968C12.2194 1.68484 10.3338 0.964962 8.38652 1.00131C6.43921 1.03766 4.5818 1.82741 3.20461 3.20461C1.82741 4.5818 1.03766 6.43921 1.00131 8.38652C0.964962 10.3338 1.68484 12.2194 3.00968 13.647C4.33451 15.0747 6.16115 15.9332 8.10575 16.0422C10.0503 16.1512 11.9615 15.5022 13.4376 14.2316L18.2236 19.0176L19.0176 18.2236ZM2.14157 8.53557C2.14157 7.27076 2.51663 6.03435 3.21932 4.9827C3.92201 3.93104 4.92077 3.11138 6.08931 2.62736C7.25784 2.14334 8.54366 2.01669 9.78417 2.26345C11.0247 2.5102 12.1642 3.11926 13.0585 4.01362C13.9529 4.90798 14.5619 6.04746 14.8087 7.28796C15.0554 8.52847 14.9288 9.81429 14.4448 10.9828C13.9608 12.1514 13.1411 13.1501 12.0894 13.8528C11.0378 14.5555 9.80138 14.9306 8.53657 14.9306C6.84091 14.9292 5.21509 14.2551 4.01608 13.0561C2.81707 11.857 2.14289 10.2312 2.14157 8.53557Z" fill="#878787" stroke="#878787" stroke-width="0.5"/>
</svg>
