<svg width="83" height="91" viewBox="0 0 83 91" fill="none" xmlns="http://www.w3.org/2000/svg">
<path d="M15.12 2L2 19.494V80.722C2 83.0418 2.92156 85.2667 4.56194 86.9071C6.20232 88.5474 8.42715 89.469 10.747 89.469H71.975C74.2948 89.469 76.5197 88.5474 78.1601 86.9071C79.8004 85.2667 80.722 83.0418 80.722 80.722V19.494L67.6 2H15.12Z" stroke="#404040" stroke-width="3" stroke-linecap="round" stroke-linejoin="round"/>
<path d="M2 19.494H80.722" stroke="#404040" stroke-width="3" stroke-linecap="round" stroke-linejoin="round"/>
<path d="M58.8549 36.988C58.8549 41.6277 57.0118 46.0774 53.7311 49.3581C50.4503 52.6389 46.0006 54.482 41.3609 54.482C36.7212 54.482 32.2716 52.6389 28.9908 49.3581C25.7101 46.0774 23.8669 41.6277 23.8669 36.988" stroke="#404040" stroke-width="3" stroke-linecap="round" stroke-linejoin="round"/>
</svg>
