<svg width="21" height="21" viewBox="0 0 21 21" fill="none" xmlns="http://www.w3.org/2000/svg">
<path fill-rule="evenodd" clip-rule="evenodd" d="M4.77275 17.741L4.77275 0.954542C4.77275 0.427379 5.20013 -2.13465e-06 5.72729 -2.1577e-06C6.25446 -2.18074e-06 6.68184 0.427379 6.68184 0.954542L6.68184 17.741L9.82503 14.5978C10.1978 14.225 10.8022 14.225 11.1749 14.5978C11.3613 14.7841 11.4546 15.0284 11.4546 15.2727C11.4546 15.517 11.3613 15.7613 11.1749 15.9477L6.40222 20.7204C6.02944 21.0932 5.42502 21.0932 5.05231 20.7204L0.279586 15.9477C-0.0931955 15.5749 -0.0931956 14.9705 0.279586 14.5978C0.652367 14.225 1.25678 14.225 1.6295 14.5978L4.77275 17.741ZM9.82502 6.40225C9.45231 6.02947 9.45231 5.42506 9.82502 5.05234L14.5977 0.279619C14.9705 -0.0931613 15.5749 -0.0931613 15.9477 0.279619L20.7204 5.05234C20.9068 5.23866 21 5.48296 21 5.72726C21 5.97156 20.9068 6.21586 20.7204 6.40219C20.3477 6.77497 19.7432 6.77497 19.3705 6.40219L16.2273 3.25901L16.2273 20.0454C16.2273 20.5726 15.7999 21 15.2727 21C14.7456 21 14.3182 20.5726 14.3182 20.0454L14.3182 3.25901L11.1749 6.40225C10.8022 6.77504 10.1977 6.77504 9.82502 6.40225Z" fill="black"/>
</svg>
