<svg width="18" height="16" viewBox="0 0 18 16" fill="none" xmlns="http://www.w3.org/2000/svg">
<path d="M17.7221 0.416931C17.5022 0.148041 17.1729 0 16.7947 0C16.5891 0 16.3713 0.0432587 16.1475 0.128815L0.910795 5.94511C0.102201 6.25369 -0.00670087 6.71677 0.000302909 6.96533C0.00730668 7.2139 0.142301 7.6701 0.9671 7.93254C0.972044 7.93405 0.976987 7.93556 0.981931 7.93694L4.14242 8.84138L5.85162 13.7289C6.08467 14.3952 6.60776 14.8092 7.21695 14.8092C7.60106 14.8092 7.97885 14.6482 8.30954 14.3439L10.2644 12.5439L13.0999 14.827C13.1001 14.8273 13.1005 14.8274 13.1008 14.8277L13.1277 14.8494C13.1302 14.8513 13.1328 14.8534 13.1353 14.8553C13.4505 15.0997 13.7945 15.2288 14.1305 15.229H14.1306C14.7872 15.229 15.31 14.743 15.4623 13.991L17.9588 1.66374C18.0591 1.16895 17.975 0.726196 17.7221 0.416931ZM5.19972 8.66959L11.2973 5.55455L7.50053 9.58887C7.43832 9.65492 7.39424 9.73581 7.37254 9.82384L6.64044 12.7893L5.19972 8.66959ZM7.59501 13.568C7.56975 13.5912 7.54434 13.6119 7.51893 13.631L8.19816 10.88L9.43371 11.875L7.59501 13.568ZM16.9252 1.45432L14.4286 13.7817C14.4046 13.8996 14.3278 14.1741 14.1305 14.1741C14.033 14.1741 13.9105 14.121 13.7851 14.0245L10.5722 11.4375C10.5718 11.437 10.5712 11.4366 10.5707 11.4364L8.6589 9.8969L14.1495 4.06274C14.3252 3.87598 14.3412 3.58992 14.1872 3.38475C14.0331 3.17958 13.7539 3.11504 13.5256 3.23177L4.49508 7.8452L1.29161 6.92867L16.5236 1.11415C16.6523 1.06499 16.7421 1.05469 16.7947 1.05469C16.827 1.05469 16.8844 1.05853 16.9057 1.08476C16.9337 1.11896 16.9694 1.23555 16.9252 1.45432Z" fill="#222222"/>
</svg>
