<svg width="76" height="100" viewBox="0 0 76 100" fill="none" xmlns="http://www.w3.org/2000/svg">
<path fill-rule="evenodd" clip-rule="evenodd" d="M49.4436 4.16667L49.5011 4.19084L58.2961 12.1654C59.1263 12.9267 60.2105 13.3512 61.3369 13.3558C62.4633 13.3604 63.551 12.9449 64.3874 12.1904L70.9665 6.44875L70.8703 93.6171L64.3919 87.8075C63.5568 87.0553 62.4719 86.6405 61.3479 86.6438C60.224 86.647 59.1415 87.068 58.3107 87.825L49.3878 95.8092L40.5896 87.8325C39.7554 87.0727 38.6677 86.6516 37.5394 86.6516C36.411 86.6517 35.3233 87.073 34.4893 87.8329L25.5749 95.8092L16.7821 87.8363C15.952 87.0742 14.8675 86.6491 13.7406 86.6442C12.6137 86.6393 11.5255 87.0548 10.6888 87.8096L4.11002 93.5512L4.20744 6.3825L10.6846 12.1913C11.5198 12.9438 12.605 13.3589 13.7292 13.3558C14.8534 13.3527 15.9363 12.9317 16.7673 12.1746L25.6895 4.19084L34.4893 12.1692C35.3237 12.9282 36.4112 13.3487 37.5392 13.3483C38.6672 13.348 39.7545 12.9267 40.5884 12.1671L49.3884 4.18834C49.3955 4.18094 49.4041 4.17518 49.4137 4.17144C49.4233 4.1677 49.4335 4.16607 49.4438 4.16667H49.4436ZM15.4365 41.875H38.6555C41.9503 41.875 44.6305 39.1579 44.6305 35.8175C44.6305 32.4771 41.9501 29.76 38.6555 29.76H15.4365C12.142 29.76 9.46152 32.4771 9.46152 35.8175C9.46152 39.1579 12.142 41.875 15.4365 41.875ZM15.4365 56.0575H59.6399C62.9344 56.0575 65.6149 53.34 65.6149 50C65.6149 46.66 62.9344 43.9425 59.6399 43.9425H15.4365C12.142 43.9425 9.46152 46.66 9.46152 50C9.46152 53.34 12.142 56.0575 15.4365 56.0575ZM15.4365 70.24H59.6399C62.9344 70.24 65.6149 67.5225 65.6149 64.1825C65.6149 60.8425 62.9344 58.125 59.6399 58.125H15.4365C12.142 58.125 9.46152 60.8425 9.46152 64.1825C9.46152 67.5225 12.142 70.24 15.4365 70.24ZM49.4436 3.63572e-06C48.4083 -0.000112064 47.4103 0.386893 46.6457 1.085L37.8482 9.06167C37.7632 9.13884 37.6526 9.18159 37.5378 9.18159C37.423 9.18159 37.3123 9.13884 37.2274 9.06167L28.4292 1.085C27.6646 0.386993 26.6667 0 25.6314 0C24.5961 0 23.5982 0.386993 22.8336 1.085L14.0274 9.06875C13.9428 9.14593 13.8325 9.18886 13.718 9.18917C13.6035 9.18948 13.493 9.14714 13.408 9.07042L6.93069 3.26167C6.52418 2.89373 6.04839 2.61053 5.53114 2.42863C5.01389 2.24674 4.46557 2.1698 3.91823 2.20231C3.37089 2.23482 2.83553 2.37613 2.34346 2.61798C1.85138 2.85983 1.41246 3.19736 1.05236 3.61084C0.36581 4.39597 -0.00861208 5.40582 0.000150388 6.44875V93.5512C-0.0154746 95.8862 1.83932 97.7917 4.14253 97.8075H4.17048C5.19489 97.8065 6.18252 97.4255 6.94223 96.7383L13.4136 90.9292C13.4982 90.8526 13.6083 90.8104 13.7223 90.8108C13.8363 90.8112 13.9461 90.8542 14.0301 90.9313L22.8352 98.915C23.5998 99.613 24.5978 100 25.6331 100C26.6684 100 27.6664 99.613 28.431 98.915L37.2291 90.9387C37.3139 90.8613 37.4246 90.8184 37.5395 90.8184C37.6543 90.8184 37.765 90.8613 37.8499 90.9387L46.6482 98.915C47.4131 99.6125 48.4109 99.9992 49.4461 99.9992C50.4813 99.9992 51.4791 99.6125 52.244 98.915L61.0503 90.9308C61.135 90.8536 61.2454 90.8107 61.36 90.8104C61.4745 90.8101 61.5852 90.8524 61.6703 90.9292L68.1474 96.7379C68.5539 97.1058 69.0298 97.3889 69.5471 97.5706C70.0644 97.7524 70.6128 97.8291 71.1602 97.7964C71.7075 97.7636 72.2428 97.6221 72.7348 97.3799C73.2267 97.1378 73.6655 96.8 74.0253 96.3862C74.7107 95.6017 75.0845 94.593 75.0761 93.5512V6.44875C75.0982 4.77542 74.1349 3.24959 72.6269 2.56917C71.8937 2.2265 71.0752 2.10938 70.2752 2.23267C69.4753 2.35597 68.7301 2.71411 68.134 3.26167L61.6628 9.07084C61.5782 9.14736 61.4681 9.18956 61.354 9.18917C61.24 9.18879 61.1302 9.14585 61.0461 9.06875L52.2411 1.085C51.4766 0.386966 50.4788 -3.63186e-05 49.4436 3.63572e-06ZM15.4365 37.7083C14.4066 37.7083 13.5714 36.8617 13.5714 35.8175C13.5714 34.7733 14.4066 33.9267 15.4365 33.9267H38.6555C39.6858 33.9267 40.5209 34.7733 40.5209 35.8175C40.5209 36.8617 39.6857 37.7083 38.6555 37.7083H15.4365ZM15.4365 51.8908C14.4066 51.8908 13.5714 51.0442 13.5714 50C13.5714 48.9558 14.4066 48.1092 15.4365 48.1092H59.6399C60.6699 48.1092 61.5049 48.9558 61.5049 50C61.5049 51.0442 60.6699 51.8908 59.6399 51.8908H15.4365ZM15.4365 66.0733C14.4066 66.0733 13.5714 65.2267 13.5714 64.1825C13.5714 63.1383 14.4065 62.2917 15.4365 62.2917H59.6399C60.6699 62.2917 61.5049 63.1383 61.5049 64.1825C61.5049 65.2267 60.6699 66.0733 59.6399 66.0733H15.4365Z" fill="#222222"/>
</svg>
