<svg width="24" height="19" viewBox="0 0 24 19" fill="none" xmlns="http://www.w3.org/2000/svg">
<path d="M1.82227 4.01611H5.52998C5.72414 4.01611 5.88155 3.85875 5.88155 3.66455C5.88155 3.47035 5.72414 3.31299 5.52998 3.31299H1.82227C1.62811 3.31299 1.4707 3.47035 1.4707 3.66455C1.4707 3.85875 1.62806 4.01611 1.82227 4.01611Z" fill="black"/>
<path d="M5.40264 5.70898H3.93799C3.74383 5.70898 3.58643 5.86634 3.58643 6.06055C3.58643 6.25475 3.74383 6.41211 3.93799 6.41211H5.40264C5.5968 6.41211 5.75421 6.25475 5.75421 6.06055C5.75421 5.86634 5.5968 5.70898 5.40264 5.70898Z" fill="black"/>
<path d="M0.351562 8.14697H3.93806C4.13222 8.14697 4.28963 7.98961 4.28963 7.79541C4.28963 7.60121 4.13222 7.44385 3.93806 7.44385H0.351562C0.157406 7.44385 0 7.60121 0 7.79541C0 7.98961 0.157406 8.14697 0.351562 8.14697Z" fill="black"/>
<path d="M5.88155 14.3794C5.88155 14.1852 5.72414 14.0278 5.52998 14.0278H1.82227C1.62811 14.0278 1.4707 14.1852 1.4707 14.3794C1.4707 14.5736 1.62811 14.731 1.82227 14.731H5.52998C5.72414 14.731 5.88155 14.5736 5.88155 14.3794Z" fill="black"/>
<path d="M5.40264 11.6323H3.93799C3.74383 11.6323 3.58643 11.7897 3.58643 11.9839C3.58643 12.1781 3.74383 12.3354 3.93799 12.3354H5.40264C5.5968 12.3354 5.75421 12.1781 5.75421 11.9839C5.75421 11.7897 5.5968 11.6323 5.40264 11.6323Z" fill="black"/>
<path d="M4.28963 10.249C4.28963 10.0548 4.13222 9.89746 3.93806 9.89746H0.351562C0.157406 9.89746 0 10.0548 0 10.249C0 10.4432 0.157406 10.6006 0.351562 10.6006H3.93806C4.13222 10.6006 4.28963 10.4432 4.28963 10.249Z" fill="black"/>
<path d="M14.978 4.79541C15.1722 4.79541 15.3296 4.63805 15.3296 4.44385V3.90723C15.3296 3.71302 15.1722 3.55566 14.978 3.55566C14.7838 3.55566 14.6265 3.71302 14.6265 3.90723V4.44385C14.6265 4.63805 14.7838 4.79541 14.978 4.79541Z" fill="black"/>
<path d="M18.8434 5.15665C18.7061 5.0194 18.4835 5.0194 18.3462 5.15665L17.9667 5.5361C17.8294 5.67345 17.8294 5.89601 17.9667 6.03331C18.1041 6.1706 18.3266 6.17056 18.4639 6.03331L18.8434 5.65385C18.9806 5.51656 18.9806 5.29399 18.8434 5.15665Z" fill="black"/>
<path d="M19.5562 8.67041C19.3619 8.67041 19.2046 8.82777 19.2046 9.02197C19.2046 9.21618 19.3619 9.37354 19.5562 9.37354H20.0927C20.2869 9.37354 20.4443 9.21618 20.4443 9.02197C20.4443 8.82777 20.2869 8.67041 20.0927 8.67041H19.5562Z" fill="black"/>
<path d="M18.4639 12.0107C18.3266 11.8734 18.104 11.8734 17.9667 12.0107C17.8294 12.148 17.8294 12.3706 17.9667 12.5079L18.3462 12.8873C18.4836 13.0246 18.7061 13.0246 18.8434 12.8873C18.9807 12.75 18.9807 12.5274 18.8434 12.3901L18.4639 12.0107Z" fill="black"/>
<path d="M14.6265 13.6006V14.1372C14.6265 14.3314 14.7838 14.4887 14.978 14.4887C15.1722 14.4887 15.3296 14.3314 15.3296 14.1372V13.6006C15.3296 13.4064 15.1722 13.249 14.978 13.249C14.7838 13.249 14.6265 13.4064 14.6265 13.6006Z" fill="black"/>
<path d="M11.4922 12.0107L11.1127 12.3901C10.9754 12.5274 10.9754 12.75 11.1127 12.8873C11.2501 13.0246 11.4726 13.0246 11.6099 12.8873L11.9893 12.5079C12.1266 12.3705 12.1266 12.1479 11.9893 12.0107C11.8521 11.8734 11.6295 11.8734 11.4922 12.0107Z" fill="black"/>
<path d="M9.86279 8.67041C9.66864 8.67041 9.51123 8.82777 9.51123 9.02197C9.51123 9.21618 9.66864 9.37354 9.86279 9.37354H10.3994C10.5936 9.37354 10.751 9.21618 10.751 9.02197C10.751 8.82777 10.5936 8.67041 10.3994 8.67041H9.86279Z" fill="black"/>
<path d="M11.9893 5.5361L11.6099 5.15665C11.4726 5.0194 11.25 5.0194 11.1127 5.15665C10.9754 5.29399 10.9754 5.51656 11.1127 5.65385L11.4922 6.03331C11.6295 6.1706 11.8521 6.17056 11.9893 6.03331C12.1266 5.89601 12.1266 5.67345 11.9893 5.5361Z" fill="black"/>
<path d="M16.8685 9.0223C16.8685 8.82809 16.7111 8.67073 16.5169 8.67073H15.3296V6.06055C15.3296 5.86634 15.1722 5.70898 14.978 5.70898C14.7838 5.70898 14.6265 5.86634 14.6265 6.06055V9.0223C14.6265 9.2165 14.7838 9.37386 14.978 9.37386H16.5169C16.7111 9.37386 16.8685 9.2165 16.8685 9.0223Z" fill="black"/>
<path d="M21.6443 8.96398C21.8381 8.95221 21.9857 8.78557 21.9739 8.59179C21.7503 4.90259 18.6773 2.0127 14.9781 2.0127C11.1131 2.0127 7.96875 5.15707 7.96875 9.02205C7.96875 12.887 11.1131 16.0314 14.9781 16.0314C18.4407 16.0314 21.3953 13.4944 21.9092 10.0709C21.9381 9.87888 21.8058 9.69987 21.6137 9.67104C21.4222 9.6423 21.2427 9.77445 21.2139 9.96654C20.7522 13.0422 18.0964 15.3283 14.9781 15.3283C11.5008 15.3283 8.67188 12.4993 8.67188 9.0221C8.67188 5.54487 11.5008 2.71587 14.9781 2.71587C18.3062 2.71587 21.0709 5.3156 21.2721 8.63445C21.2838 8.82813 21.4503 8.97523 21.6443 8.96398Z" fill="black"/>
<path d="M14.9777 0C13.7411 0 12.5295 0.256547 11.4143 0.736313H5.21143C5.01727 0.736313 4.85986 0.893672 4.85986 1.08788C4.85986 1.28208 5.01727 1.43944 5.21143 1.43944H10.0917C9.43186 1.86413 8.82441 2.37638 8.28882 2.96775C8.1585 3.11161 8.16947 3.33394 8.31338 3.4643C8.45733 3.59466 8.67957 3.58364 8.80997 3.43973C10.3851 1.70058 12.6331 0.703125 14.9777 0.703125C19.5648 0.703125 23.2967 4.43498 23.2967 9.02208C23.2967 13.6091 19.5648 17.341 14.9777 17.341C10.3906 17.341 6.65874 13.6092 6.65874 9.02208C6.65874 7.41577 7.1176 5.8567 7.98563 4.51336C8.091 4.35028 8.04422 4.13269 7.88114 4.02731C7.71807 3.92198 7.50047 3.96867 7.39505 4.1318C6.45333 5.58905 5.95561 7.28006 5.95561 9.02208C5.95561 12.1986 7.60589 14.9967 10.094 16.6047H5.21147C5.01732 16.6047 4.85991 16.7621 4.85991 16.9563C4.85991 17.1505 5.01732 17.3078 5.21147 17.3078H11.4095C12.5045 17.7812 13.7109 18.0442 14.9777 18.0442C19.9525 18.0442 23.9998 13.9969 23.9998 9.02208C23.9998 4.04728 19.9525 0 14.9777 0Z" fill="black"/>
</svg>
