<svg width="24" height="26" viewBox="0 0 24 26" fill="none" xmlns="http://www.w3.org/2000/svg">
<path d="M1 5.80005H22.5993" stroke="#222222" stroke-width="1.5" stroke-linecap="round" stroke-linejoin="round"/>
<path d="M7.0008 5.79965V3.4007C7.0008 2.76429 7.25349 2.15393 7.70333 1.70376C8.15317 1.2536 8.76335 1.00046 9.39975 1H14.1994C14.8361 1 15.4467 1.25293 15.8969 1.70315C16.3472 2.15337 16.6001 2.76399 16.6001 3.4007V5.79965M20.2003 5.79965V22.5993C20.2003 23.236 19.9473 23.8466 19.4971 24.2969C19.0469 24.7471 18.4363 25 17.7996 25H5.80133C5.16462 25 4.554 24.7471 4.10378 24.2969C3.65356 23.8466 3.40063 23.236 3.40063 22.5993V5.79965H20.2003Z" stroke="#222222" stroke-width="1.5" stroke-linecap="round" stroke-linejoin="round"/>
<path d="M9.3999 11.8003V19.0007" stroke="#222222" stroke-width="1.5" stroke-linecap="round" stroke-linejoin="round"/>
<path d="M14.1995 11.8003V19.0007" stroke="#222222" stroke-width="1.5" stroke-linecap="round" stroke-linejoin="round"/>
</svg>
