<svg width="17" height="17" viewBox="0 0 17 17" fill="none" xmlns="http://www.w3.org/2000/svg">
<g clip-path="url(#clip0_1_828)">
<path d="M11.298 2.90784H1.61719V11.2979H11.298V2.90784Z" stroke="white" stroke-width="2" stroke-linecap="round" stroke-linejoin="round"/>
<path d="M11.2979 6.13477H13.8794L15.8156 8.07094V11.2979H11.2979V6.13477Z" stroke="white" stroke-width="2" stroke-linecap="round" stroke-linejoin="round"/>
<path d="M4.52143 14.5249C5.41253 14.5249 6.13491 13.8025 6.13491 12.9114C6.13491 12.0204 5.41253 11.298 4.52143 11.298C3.63034 11.298 2.90796 12.0204 2.90796 12.9114C2.90796 13.8025 3.63034 14.5249 4.52143 14.5249Z" stroke="white" stroke-width="2" stroke-linecap="round" stroke-linejoin="round"/>
<path d="M12.9113 14.5249C13.8024 14.5249 14.5248 13.8025 14.5248 12.9114C14.5248 12.0204 13.8024 11.298 12.9113 11.298C12.0202 11.298 11.2979 12.0204 11.2979 12.9114C11.2979 13.8025 12.0202 14.5249 12.9113 14.5249Z" stroke="white" stroke-width="2" stroke-linecap="round" stroke-linejoin="round"/>
</g>
<defs>
<clipPath id="clip0_1_828">
<rect width="15.4894" height="15.4894" fill="white" transform="translate(0.97168 0.97168)"/>
</clipPath>
</defs>
</svg>
