<svg width="18" height="15" viewBox="0 0 18 15" fill="none" xmlns="http://www.w3.org/2000/svg">
<path d="M18 1.9675C16.8677 2.01969 16.8924 2.01543 16.7645 2.02614L17.435 0.111086C17.435 0.111086 15.3419 0.881091 14.8112 1.01883C13.4176 -0.233747 11.3461 -0.289091 9.86517 0.621127C8.65242 1.36669 8.00148 2.64701 8.2186 4.14348C5.85832 3.81595 3.86966 2.69713 2.29958 0.811053L1.80299 0.214632L1.43193 0.896059C0.962952 1.75711 0.807221 2.74163 0.993301 3.66818C1.06966 4.04831 1.19943 4.41086 1.3792 4.75034L0.953201 4.58527L0.902664 5.29705C0.85144 6.02008 1.09218 6.86411 1.54674 7.5546C1.67473 7.74906 1.83952 7.9626 2.0484 8.17327L1.82826 8.13948L2.09688 8.95508C2.44995 10.0267 3.18329 10.8557 4.13498 11.3166C3.18452 11.7199 2.41672 11.9773 1.15466 12.3924L0 12.772L1.0665 13.3551C1.47313 13.5774 2.91 14.32 4.32971 14.5427C7.48553 15.0377 11.0387 14.6346 13.4306 12.4803C15.4454 10.6658 16.1065 8.08469 15.9692 5.39867C15.9484 4.99204 16.0598 4.60395 16.2828 4.30608C16.7296 3.70966 17.9973 1.97148 18 1.9675ZM15.4395 3.67436C15.0691 4.16889 14.8836 4.80046 14.9168 5.4525C15.0554 8.16187 14.3182 10.263 12.7256 11.6973C10.8652 13.3728 7.86443 14.0305 4.493 13.5016C3.88243 13.4059 3.2514 13.1915 2.72914 12.9774C3.78726 12.6134 4.60437 12.2889 5.92397 11.6643L7.7661 10.7924L5.73225 10.6622C4.75804 10.5999 3.94684 10.1277 3.4482 9.36116C3.71297 9.34578 3.96826 9.30294 4.22246 9.23207L6.16223 8.69182L4.20625 8.21282C3.2558 7.98004 2.71404 7.41136 2.42688 6.97521C2.23833 6.6886 2.11514 6.39499 2.04126 6.12432C2.23737 6.17691 2.46602 6.2144 2.83475 6.25093L4.64516 6.43001L3.21075 5.31105C2.17722 4.50493 1.76303 3.29383 2.06667 2.12955C5.29225 5.47516 9.07951 5.22371 9.46074 5.31215C9.37683 4.4971 9.37463 4.49518 9.35266 4.41759C8.86446 2.69177 9.93439 1.81548 10.417 1.51885C11.425 0.899355 13.025 0.805972 14.1332 1.8266C14.3726 2.04688 14.6963 2.13353 14.9992 2.05828C15.2711 1.99071 15.4943 1.91916 15.7128 1.8413L15.2579 3.14015L15.8386 3.14057C15.729 3.28751 15.5976 3.46343 15.4395 3.67436Z" fill="#222222"/>
</svg>
