<svg width="18" height="12" viewBox="0 0 18 12" fill="none" xmlns="http://www.w3.org/2000/svg">
<path d="M9.10875 11.25C11.7128 11.25 10.7843 9.6015 10.9853 9.1275C10.9823 8.7735 10.9793 8.433 10.9913 8.226C11.1563 8.2725 11.5455 8.46975 12.3495 9.25125C13.5908 10.5037 13.908 11.25 14.9108 11.25H16.7565C17.3415 11.25 17.646 11.0078 17.7983 10.8045C17.9453 10.608 18.0893 10.263 17.9318 9.726C17.52 8.433 15.1185 6.20025 14.9693 5.96475C14.9918 5.92125 15.0278 5.8635 15.0465 5.8335H15.045C15.519 5.20725 17.328 2.49675 17.5943 1.41225C17.595 1.41075 17.5958 1.4085 17.5958 1.40625C17.7398 0.91125 17.6078 0.59025 17.4713 0.40875C17.2658 0.13725 16.9388 0 16.497 0H14.6513C14.0333 0 13.5645 0.31125 13.3275 0.879C12.9308 1.88775 11.8163 3.96225 10.9808 4.6965C10.9553 3.65625 10.9725 2.862 10.986 2.27175C11.013 1.1205 11.1 0 9.90525 0H7.00425C6.25575 0 5.5395 0.8175 6.315 1.788C6.993 2.6385 6.55875 3.1125 6.705 5.472C6.135 4.86075 5.121 3.21 4.404 1.10025C4.203 0.5295 3.8985 0.000749946 3.04125 0.000749946H1.1955C0.447 0.000749946 0 0.40875 0 1.092C0 2.6265 3.39675 11.25 9.10875 11.25ZM3.04125 1.12575C3.204 1.12575 3.2205 1.12575 3.34125 1.4685C4.0755 3.63075 5.7225 6.83025 6.9255 6.83025C7.82925 6.83025 7.82925 5.904 7.82925 5.55525L7.8285 2.77875C7.779 1.86 7.4445 1.4025 7.22475 1.125L9.85575 1.128C9.85725 1.14075 9.84075 4.19925 9.86325 4.94025C9.86325 5.9925 10.6988 6.5955 12.003 5.2755C13.3793 3.72225 14.331 1.40025 14.3693 1.30575C14.4255 1.17075 14.4743 1.125 14.6513 1.125H16.497H16.5045C16.5038 1.12725 16.5038 1.1295 16.503 1.13175C16.3343 1.91925 14.6685 4.42875 14.1113 5.208C14.1023 5.22 14.094 5.23275 14.0858 5.2455C13.8405 5.646 13.641 6.0885 14.1195 6.711H14.1203C14.1638 6.7635 14.277 6.8865 14.442 7.0575C14.955 7.587 16.7145 9.3975 16.8705 10.1175C16.767 10.134 16.6545 10.122 14.9108 10.1257C14.5395 10.1257 14.2493 9.57075 13.1415 8.45325C12.1455 7.48425 11.499 7.08825 10.9103 7.08825C9.76725 7.08825 9.8505 8.016 9.861 9.138C9.86475 10.3545 9.85725 9.96975 9.8655 10.0463C9.79875 10.0725 9.6075 10.125 9.10875 10.125C4.35 10.125 1.251 2.57175 1.13175 1.128C1.173 1.12425 1.74075 1.1265 3.04125 1.12575Z" fill="#222222"/>
</svg>
